<?xml version="1.0" encoding="UTF-8"?>
<svg id="Layer_1" xmlns="http://www.w3.org/2000/svg" version="1.1" viewBox="0 0 1142.99 1189.81">
  <!-- Generator: Adobe Illustrator 30.7.0, SVG Export Plug-In . SVG Version: 2.1.4 Build 40)  -->
  <defs>
    <style>
      .st0 {
        fill: #8ac9ea;
      }

      .st1 {
        fill: #e11d2c;
      }

      .st2 {
        fill: #fdfdfd;
      }
    </style>
  </defs>
  
  <path class="st0" d="M1016.8,968.09c-135.62,176.45-360.31,259.9-577.67,205.03-82.26-20.77-158.35-60.24-223.56-114.3-31.79-26.36-60.24-55.91-85.89-88.24-49.43-62.3-85.32-133.65-106.74-210.16C-16.7,618.83-4.77,467.73,57.2,334.35c31.7-68.23,76.35-130.05,131.17-181.36C286.94,60.71,413.91,6.58,549.16.54c112.67-5.03,225.06,25.06,320.79,84.83,84.48,52.74,153.3,127.21,199.68,215.24,65.78,124.85,88.64,265.36,63.22,404.5-17.46,95.62-56.86,185.96-116.05,262.98ZM676.72,361.52c-14.39,3.6-27.99,9.15-41.71,15.93l-47.37,23.39c-25.77,12.73-50.76-1.51-74.01-14.18-16.96-9.24-33.35-17.72-51.54-24.39-61.81-22.67-138.1-12.59-171.02,48.09-18.75,34.57-22.16,78.77-19.15,117.99,2.4,31.18,6.93,61,13.46,91.66,13.46,63.21,30.62,124.88,52.04,185.81,9.53,27.11,20.11,52.78,32.64,78.43,8.56,17.52,18.05,33.62,30.55,48.38,8.79,10.39,19.21,18.76,32.03,22.82,45.41,14.39,63.29-49.38,69.37-87.05l9.46-58.61c3.71-23.01,12.69-53.18,29.82-67.87,17.44-14.96,41.44-12.01,55.2,6.15,18.23,24.06,23.07,58.46,28,88.86,5.57,34.35,13.91,81.23,36.2,106.47,13.88,15.71,34.76,20.25,53.5,11.01,23.45-11.57,41.55-38.57,53.96-62,42.49-80.22,77.94-197.87,97.49-287.22,11.67-53.29,20.14-116.25,5.97-168.62,21.93-21.71,35.07-54.97,19.71-82.5-16.71-29.95-55.92-37.05-82.9-16.16l-15.35,15c-.7-11.29-2.59-21.01-7.27-30.31-8.31-16.5-24.3-27.54-41.07-29.89-19.61-2.75-37.71,4.39-50.47,18.93-12.08,13.76-17.37,31.54-17.53,49.89Z"/>
  <path class="st2" d="M676.72,361.52c-.24,27.78,14.22,60.52,27.96,85.14,10.47,18.76,21.28,36.66,34,53.81,1.96,2.6,8.55.18,10.84-.73,27.27-9.47,53.01-19.93,78.47-33.34,15.9-8.54,30.93-17.29,43.6-29.84,14.17,52.38,5.69,115.33-5.97,168.62-19.56,89.35-55,207-97.49,287.22-12.41,23.43-30.5,50.43-53.96,62-18.74,9.24-39.62,4.7-53.5-11.01-22.29-25.24-30.62-72.12-36.2-106.47-4.93-30.4-9.76-64.8-28-88.86-13.76-18.16-37.76-21.12-55.2-6.15-17.13,14.69-26.11,44.87-29.82,67.87l-9.46,58.61c-6.08,37.67-23.96,101.43-69.37,87.05-12.81-4.06-23.23-12.43-32.03-22.82-12.5-14.77-21.98-30.86-30.55-48.38-12.53-25.65-23.11-51.31-32.64-78.43-21.42-60.93-38.58-122.6-52.04-185.81-6.53-30.65-11.06-60.47-13.46-91.66-3.01-39.22.39-83.42,19.15-117.99,32.92-60.68,109.21-70.76,171.02-48.09,18.2,6.67,34.58,15.15,51.54,24.39,23.25,12.67,48.24,26.91,74.01,14.18l47.37-23.39c13.72-6.77,27.32-12.33,41.71-15.93Z"/>
  <path class="st1" d="M871.6,436.55c-12.67,12.55-27.7,21.31-43.6,29.84-25.47,13.41-51.21,23.87-78.47,33.34-2.3.91-8.89,3.33-10.84.73-12.72-17.15-23.54-35.05-34-53.81-13.74-24.61-28.2-57.36-27.96-85.14.16-18.35,5.44-36.14,17.53-49.89,12.77-14.53,30.86-21.68,50.47-18.93,16.77,2.36,32.76,13.39,41.07,29.89,4.68,9.3,6.57,19.02,7.27,30.31l15.35-15c26.98-20.89,66.19-13.79,82.9,16.16,15.36,27.52,2.21,60.78-19.71,82.5Z"/>
</svg>